<?xml version="1.0" encoding="UTF-8"?><svg id="Layer_2" xmlns="http://www.w3.org/2000/svg" viewBox="0 0 411.17 254.01"><defs><style>.cls-1{fill:#2c5573;}.cls-2,.cls-3,.cls-4,.cls-5,.cls-6{fill:none;stroke-miterlimit:10;}.cls-2,.cls-3,.cls-6{stroke-linecap:round;}.cls-2,.cls-4{stroke:#f2f2f2;}.cls-2,.cls-6{stroke-width:1.84px;}.cls-3{stroke:#b4ebef;stroke-width:1.67px;}.cls-7{fill:#9c7c6e;opacity:.32;}.cls-8{fill:#dfb180;}.cls-4{stroke-width:2.31px;}.cls-5{stroke:#43e4bc;stroke-width:.83px;}.cls-9{fill:#4e9f97;}.cls-10{fill:#b4ebef;}.cls-11{fill:#4eb4af;}.cls-12{fill:#2c4755;}.cls-13{fill:#e6c49e;}.cls-14{fill:#10cab7;}.cls-15{fill:#9c85f2;}.cls-6{stroke:#1e3358;}.cls-16{fill:#1e3358;}.cls-17{fill:#fbe9e2;}.cls-18{fill:#f2f2f2;}</style></defs><g id="OBJECTS"><g><line class="cls-3" x1="153.99" y1="127.51" x2="149.86" y2="131.63"/><line class="cls-3" x1="153.99" y1="131.63" x2="149.86" y2="127.51"/><path class="cls-3" d="M101.24,141.95c0,1.69-1.37,3.05-3.05,3.05s-3.05-1.37-3.05-3.05,1.37-3.05,3.05-3.05,3.05,1.37,3.05,3.05Z"/><path class="cls-3" d="M149.07,21.89c0,2.66-2.15,4.81-4.81,4.81s-4.81-2.15-4.81-4.81c0-2.66,2.15-4.81,4.81-4.81s4.81,2.15,4.81,4.81Z"/><path class="cls-3" d="M10.46,200.82c0,2.66-2.15,4.81-4.81,4.81s-4.81-2.15-4.81-4.81,2.15-4.81,4.81-4.81,4.81,2.15,4.81,4.81Z"/><circle class="cls-3" cx="346.62" cy="155.02" r="4.81"/><circle class="cls-3" cx="320.77" cy="39.05" r="4.81"/><line class="cls-3" x1="302.64" y1="111.87" x2="302.64" y2="117.7"/><line class="cls-3" x1="305.55" y1="114.78" x2="299.72" y2="114.78"/><line class="cls-3" x1="144.26" y1="61.32" x2="144.26" y2="67.16"/><line class="cls-3" x1="147.18" y1="64.24" x2="141.35" y2="64.24"/><line class="cls-3" x1="182.82" y1=".83" x2="178.7" y2="4.96"/><line class="cls-3" x1="182.82" y1="4.96" x2="178.7" y2=".83"/><line class="cls-3" x1="348.68" y1="78.98" x2="344.56" y2="83.11"/><line class="cls-3" x1="348.68" y1="83.11" x2="344.56" y2="78.98"/><path class="cls-14" d="M203.72,82.6c0,9.78-7.09,17.7-15.83,17.7s-15.83-7.93-15.83-17.7c0-9.78,7.09-17.7,15.83-17.7s15.83,7.93,15.83,17.7Z"/><path class="cls-8" d="M209.55,102.96c1.25,9.42,2.92,10.88-5.21,18.79-8.12,7.91-.62,15,3.13,16.25,3.75,1.25,28.74,13.75,36.03-1.46,7.29-15.2,10.21-21.04,2.92-25.2-7.29-4.17-12.29-4.17-15-25.41-2.71-21.24-9.16-14.37-9.16-14.37l-12.71,31.41Z"/><path class="cls-13" d="M188.31,36.98c-17.33,9.63-19.79,31.24-10.41,48.32,9.37,17.08,26.66,29.16,33.53,27.7,6.87-1.46,17.84-16.05,21.87-30.83,3.75-13.75,5-28.95-9.37-41.24-10.84-9.27-24.37-10.21-35.62-3.96Z"/><ellipse class="cls-12" cx="223.5" cy="19.49" rx="12.5" ry="16.25" transform="translate(128.89 222.91) rotate(-70.04)"/><path class="cls-12" d="M169.35,63.02c-5.8-6.56-4.79-31.87,20.62-38.53,25.41-6.67,36.66,1.46,41.45,6.04,4.79,4.58,15,16.25,11.04,34.37-3.96,18.12-11.46,22.91-11.46,22.91,0,0,.62-18.54-4.37-21.45-5-2.92-5.83,2.5-9.37,2.29-3.54-.21-8.75-7.71-21.66-7.71s-21.45,7.5-26.24,2.08Z"/><path class="cls-12" d="M179.35,49.48c22.7-6.25,31.24,17.08,31.24,17.08,0,0-8.12,8.96-24.99,14.58-16.87,5.62-21.04,1.04-21.04,1.04,0,0-9.52-26.01,14.79-32.7Z"/><path class="cls-14" d="M237.67,67.39c0,9.78-7.09,17.7-15.83,17.7s-15.83-7.93-15.83-17.7c0-9.78,7.09-17.7,15.83-17.7s15.83,7.93,15.83,17.7Z"/><path class="cls-5" d="M222.23,83.05c-7.35-1.53-12.91-8.74-12.91-17.4,0-2.58,.49-5.03,1.38-7.25"/><path class="cls-12" d="M158.73,254.01c-.83-16.04-8.19-61.45,9.16-94.98,12.29-23.74,20.41-25.41,25.83-28.95,5.42-3.54,10-7.71,10-7.71,0,0,2.08,16.25,20,13.12,17.91-3.12,22.7-24.16,22.7-24.16,0,0,13.95,5.42,24.99,10,11.04,4.58,37.49,18.12,43.53,57.69,6.04,39.57,5.83,74.98,5.83,74.98H158.73Z"/><path class="cls-14" d="M69.77,34.96v13.37c0,2.32,1.88,4.2,4.2,4.2h1.87l-.1,6.9,9.87-6.9h17.26c2.32,0,4.2-1.88,4.2-4.2v-13.37c0-2.32-1.88-4.2-4.2-4.2h-28.9c-2.32,0-4.2,1.88-4.2,4.2Z"/><path class="cls-14" d="M302.64,68.29v13.37c0,2.32-1.88,4.2-4.2,4.2h-1.87l.1,6.9-9.87-6.9h-17.26c-2.32,0-4.2-1.88-4.2-4.2v-13.37c0-2.32,1.88-4.2,4.2-4.2h28.9c2.32,0,4.2,1.88,4.2,4.2Z"/><path class="cls-14" d="M123.59,101.84c-.37-1.01-1.28-1.43-2.75-.89-1.59,.58-2.15,2-2.23,3.57l-4.82-.82c.18-3.44,2.37-6.14,5.57-7.31,3.29-1.2,7.32-.39,8.69,3.37,1.57,4.3-2.56,7.32-1.83,9.31l-4.62,1.69c-1.24-3.38,2.91-6.37,1.98-8.91Zm-.63,13.94c-.55-1.5,.24-3.2,1.74-3.75,1.5-.55,3.2,.24,3.75,1.74,.55,1.5-.24,3.2-1.74,3.75-1.5,.55-3.2-.24-3.75-1.74Z"/><path class="cls-14" d="M341.05,119.62c.45-.98,.1-1.92-1.32-2.57-1.54-.71-2.93-.1-4.1,.96l-2.84-3.98c2.55-2.31,6.01-2.68,9.11-1.25,3.18,1.47,5.46,4.89,3.79,8.52-1.92,4.16-6.98,3.39-7.86,5.31l-4.47-2.06c1.51-3.27,6.55-2.46,7.68-4.92Zm-10.28,9.45c.67-1.45,2.42-2.1,3.87-1.43,1.45,.67,2.1,2.42,1.43,3.87-.67,1.45-2.42,2.1-3.87,1.43-1.45-.67-2.1-2.42-1.43-3.87Z"/><path class="cls-14" d="M276.86,20.64c.45-.98,.1-1.92-1.33-2.57-1.54-.7-2.93-.09-4.09,.97l-2.85-3.97c2.55-2.32,6-2.69,9.1-1.27,3.19,1.46,5.48,4.87,3.81,8.51-1.91,4.16-6.97,3.4-7.85,5.33l-4.47-2.05c1.5-3.27,6.54-2.48,7.67-4.94Zm-10.25,9.47c.67-1.45,2.42-2.1,3.87-1.44,1.45,.67,2.1,2.42,1.44,3.87-.67,1.45-2.42,2.11-3.87,1.44-1.45-.67-2.1-2.42-1.44-3.87Z"/><path class="cls-14" d="M33.83,154.94c-.34-1.02-1.24-1.46-2.73-.96-1.6,.54-2.2,1.94-2.32,3.51l-4.8-.94c.27-3.43,2.52-6.08,5.75-7.17,3.32-1.12,7.33-.21,8.61,3.58,1.47,4.34-2.74,7.25-2.06,9.26l-4.66,1.58c-1.15-3.41,3.06-6.29,2.2-8.86Zm-.97,13.92c-.51-1.51,.32-3.19,1.83-3.7,1.51-.51,3.19,.32,3.7,1.83,.51,1.51-.32,3.19-1.83,3.7-1.51,.51-3.19-.32-3.7-1.83Z"/><rect class="cls-12" x="44.38" y="105.72" width="33.43" height="23.64"/><polygon class="cls-12" points="44.38 105.72 61.1 91.55 77.81 105.72 44.38 105.72"/><rect class="cls-11" x="48.49" y="87.74" width="25.21" height="38.71"/><polygon class="cls-14" points="44.38 129.36 61.1 117.7 44.38 105.72 44.38 129.36"/><polygon class="cls-14" points="77.81 105.72 61.1 117.54 77.81 129.36 77.81 105.72"/><polygon class="cls-12" points="44.38 129.36 61.1 117.54 77.81 129.36 44.38 129.36"/><path class="cls-1" d="M253.64,127.14c0,1.34-1.09,2.43-2.43,2.43s-2.43-1.09-2.43-2.43,1.09-2.43,2.43-2.43,2.43,1.09,2.43,2.43Z"/><circle class="cls-1" cx="199.55" cy="138.9" r="2.43"/><path class="cls-1" d="M201.99,155.02c0,1.34-1.09,2.43-2.43,2.43s-2.43-1.09-2.43-2.43c0-1.34,1.09-2.43,2.43-2.43s2.43,1.09,2.43,2.43Z"/><path class="cls-1" d="M229.69,159.88c0,1.34-1.09,2.43-2.43,2.43s-2.43-1.09-2.43-2.43,1.09-2.43,2.43-2.43,2.43,1.09,2.43,2.43Z"/><path class="cls-1" d="M247.18,162.32c0,1.34-1.09,2.43-2.43,2.43s-2.43-1.09-2.43-2.43,1.09-2.43,2.43-2.43,2.43,1.09,2.43,2.43Z"/><path class="cls-1" d="M294.4,155.02c0,1.34-1.09,2.43-2.43,2.43s-2.43-1.09-2.43-2.43,1.09-2.43,2.43-2.43,2.43,1.09,2.43,2.43Z"/><path class="cls-1" d="M244.75,178.79c0,1.34-1.09,2.43-2.43,2.43s-2.43-1.09-2.43-2.43,1.09-2.43,2.43-2.43,2.43,1.09,2.43,2.43Z"/><path class="cls-1" d="M267.76,186.09c0,1.34-1.09,2.43-2.43,2.43s-2.43-1.09-2.43-2.43,1.09-2.43,2.43-2.43,2.43,1.09,2.43,2.43Z"/><path class="cls-1" d="M305.07,178.79c0,1.34-1.09,2.43-2.43,2.43s-2.43-1.09-2.43-2.43,1.09-2.43,2.43-2.43,2.43,1.09,2.43,2.43Z"/><path class="cls-1" d="M275.07,134.96c0,1.34-1.09,2.43-2.43,2.43s-2.43-1.09-2.43-2.43,1.09-2.43,2.43-2.43,2.43,1.09,2.43,2.43Z"/><circle class="cls-1" cx="211.84" cy="167.26" r="2.43"/><path class="cls-1" d="M197.12,172.13c0,1.34-1.09,2.43-2.43,2.43s-2.43-1.09-2.43-2.43c0-1.34,1.09-2.43,2.43-2.43s2.43,1.09,2.43,2.43Z"/><path class="cls-15" d="M171.71,191.3c0,1.34-1.09,2.43-2.43,2.43s-2.43-1.09-2.43-2.43c0-1.34,1.09-2.43,2.43-2.43s2.43,1.09,2.43,2.43Z"/><circle class="cls-15" cx="165.16" cy="215.66" r="2.43"/><path class="cls-1" d="M186.66,150.15c0,1.34-1.09,2.43-2.43,2.43s-2.43-1.09-2.43-2.43,1.09-2.43,2.43-2.43,2.43,1.09,2.43,2.43Z"/><path class="cls-1" d="M178.41,167.26c0,1.34-1.09,2.43-2.43,2.43s-2.43-1.09-2.43-2.43,1.09-2.43,2.43-2.43,2.43,1.09,2.43,2.43Z"/><path class="cls-1" d="M211.84,185.11c0,1.34-1.09,2.43-2.43,2.43s-2.43-1.09-2.43-2.43,1.09-2.43,2.43-2.43,2.43,1.09,2.43,2.43Z"/><path class="cls-15" d="M170.03,241.93c0,1.34-1.09,2.43-2.43,2.43s-2.43-1.09-2.43-2.43,1.09-2.43,2.43-2.43,2.43,1.09,2.43,2.43Z"/><path class="cls-1" d="M218.38,203.26c0,1.34-1.09,2.43-2.43,2.43s-2.43-1.09-2.43-2.43,1.09-2.43,2.43-2.43,2.43,1.09,2.43,2.43Z"/><path class="cls-15" d="M189.09,245.67c0,1.34-1.09,2.43-2.43,2.43s-2.43-1.09-2.43-2.43,1.09-2.43,2.43-2.43,2.43,1.09,2.43,2.43Z"/><path class="cls-1" d="M217.61,223.02c0,1.34-1.09,2.43-2.43,2.43s-2.43-1.09-2.43-2.43c0-1.34,1.09-2.43,2.43-2.43s2.43,1.09,2.43,2.43Z"/><path class="cls-1" d="M263.65,167.26c0,1.34-1.09,2.43-2.43,2.43s-2.43-1.09-2.43-2.43,1.09-2.43,2.43-2.43,2.43,1.09,2.43,2.43Z"/><path class="cls-15" d="M183.28,205.69c0,1.34-1.09,2.43-2.43,2.43s-2.43-1.09-2.43-2.43,1.09-2.43,2.43-2.43,2.43,1.09,2.43,2.43Z"/><path class="cls-1" d="M201.99,227.89c0,1.34-1.09,2.43-2.43,2.43s-2.43-1.09-2.43-2.43,1.09-2.43,2.43-2.43,2.43,1.09,2.43,2.43Z"/><path class="cls-15" d="M231.32,237.81c0,1.34-1.09,2.43-2.43,2.43s-2.43-1.09-2.43-2.43c0-1.34,1.09-2.43,2.43-2.43s2.43,1.09,2.43,2.43Z"/><path class="cls-1" d="M273.81,207.26c0,1.34-1.09,2.43-2.43,2.43s-2.43-1.09-2.43-2.43,1.09-2.43,2.43-2.43,2.43,1.09,2.43,2.43Z"/><path class="cls-1" d="M307.5,232.76c0,1.34-1.09,2.43-2.43,2.43s-2.43-1.09-2.43-2.43,1.09-2.43,2.43-2.43,2.43,1.09,2.43,2.43Z"/><path class="cls-1" d="M287.86,220.53c0,1.34-1.09,2.43-2.43,2.43s-2.43-1.09-2.43-2.43,1.09-2.43,2.43-2.43,2.43,1.09,2.43,2.43Z"/><path class="cls-15" d="M283.98,243.24c0,1.34-1.09,2.43-2.43,2.43s-2.43-1.09-2.43-2.43,1.09-2.43,2.43-2.43,2.43,1.09,2.43,2.43Z"/><path class="cls-1" d="M184.22,181.22c0,1.34-1.09,2.43-2.43,2.43s-2.43-1.09-2.43-2.43,1.09-2.43,2.43-2.43,2.43,1.09,2.43,2.43Z"/><path class="cls-1" d="M199.55,207.26c0,1.34-1.09,2.43-2.43,2.43s-2.43-1.09-2.43-2.43c0-1.34,1.09-2.43,2.43-2.43s2.43,1.09,2.43,2.43Z"/><path class="cls-15" d="M214.28,245.67c0,1.34-1.09,2.43-2.43,2.43s-2.43-1.09-2.43-2.43,1.09-2.43,2.43-2.43,2.43,1.09,2.43,2.43Z"/><path class="cls-1" d="M218.38,147.71c0,1.34-1.09,2.43-2.43,2.43s-2.43-1.09-2.43-2.43,1.09-2.43,2.43-2.43,2.43,1.09,2.43,2.43Z"/><path class="cls-1" d="M256.08,146.82c0,1.34-1.09,2.43-2.43,2.43s-2.43-1.09-2.43-2.43,1.09-2.43,2.43-2.43,2.43,1.09,2.43,2.43Z"/><path class="cls-1" d="M238.62,141.95c0,1.34-1.09,2.43-2.43,2.43s-2.43-1.09-2.43-2.43c0-1.34,1.09-2.43,2.43-2.43s2.43,1.09,2.43,2.43Z"/><path class="cls-1" d="M275.07,152.58c0,1.34-1.09,2.43-2.43,2.43s-2.43-1.09-2.43-2.43,1.09-2.43,2.43-2.43,2.43,1.09,2.43,2.43Z"/><path class="cls-1" d="M283.98,173.92c0,1.34-1.09,2.43-2.43,2.43s-2.43-1.09-2.43-2.43,1.09-2.43,2.43-2.43,2.43,1.09,2.43,2.43Z"/><path class="cls-1" d="M305.07,203.26c0,1.34-1.09,2.43-2.43,2.43s-2.43-1.09-2.43-2.43,1.09-2.43,2.43-2.43,2.43,1.09,2.43,2.43Z"/><path class="cls-1" d="M227.25,178.79c0,1.34-1.09,2.43-2.43,2.43s-2.43-1.09-2.43-2.43,1.09-2.43,2.43-2.43,2.43,1.09,2.43,2.43Z"/><path class="cls-1" d="M253.64,196.92c0,1.34-1.09,2.43-2.43,2.43s-2.43-1.09-2.43-2.43,1.09-2.43,2.43-2.43,2.43,1.09,2.43,2.43Z"/><path class="cls-1" d="M287.86,196.16c0,1.34-1.09,2.43-2.43,2.43s-2.43-1.09-2.43-2.43,1.09-2.43,2.43-2.43,2.43,1.09,2.43,2.43Z"/><path class="cls-1" d="M267.76,230.32c0,1.34-1.09,2.43-2.43,2.43s-2.43-1.09-2.43-2.43,1.09-2.43,2.43-2.43,2.43,1.09,2.43,2.43Z"/><path class="cls-15" d="M234.56,218.1c0,1.34-1.09,2.43-2.43,2.43s-2.43-1.09-2.43-2.43c0-1.34,1.09-2.43,2.43-2.43s2.43,1.09,2.43,2.43Z"/><path class="cls-15" d="M249.62,235.37c0,1.34-1.09,2.43-2.43,2.43s-2.43-1.09-2.43-2.43,1.09-2.43,2.43-2.43,2.43,1.09,2.43,2.43Z"/><path class="cls-1" d="M197.12,191.3c0,1.34-1.09,2.43-2.43,2.43s-2.43-1.09-2.43-2.43c0-1.34,1.09-2.43,2.43-2.43s2.43,1.09,2.43,2.43Z"/><path class="cls-15" d="M183.28,225.45c0,1.34-1.09,2.43-2.43,2.43s-2.43-1.09-2.43-2.43c0-1.34,1.09-2.43,2.43-2.43s2.43,1.09,2.43,2.43Z"/><path class="cls-1" d="M236.19,196.92c0,1.34-1.09,2.43-2.43,2.43s-2.43-1.09-2.43-2.43,1.09-2.43,2.43-2.43,2.43,1.09,2.43,2.43Z"/><path class="cls-1" d="M253.64,214.68c0,1.34-1.09,2.43-2.43,2.43s-2.43-1.09-2.43-2.43,1.09-2.43,2.43-2.43,2.43,1.09,2.43,2.43Z"/><path class="cls-16" d="M202.03,85.26c.36,.81,.27,1.64-.2,1.84-.47,.2-1.13-.29-1.49-1.11-.36-.81-.27-1.64,.2-1.84,.47-.2,1.13,.29,1.49,1.11Z"/><path class="cls-7" d="M202.29,95.65c.12,.29-.91,.98-2.29,1.54-1.38,.57-2.6,.79-2.72,.51s.91-.98,2.29-1.54c1.38-.57,2.6-.79,2.72-.51Z"/><path class="cls-17" d="M209.06,98.84c.8,1.71-.33,4.88-3.06,6.16-2.72,1.27-6.01,.15-6.81-1.55l9.86-4.6Z"/><path class="cls-2" d="M221.97,83.99c1.51,5.16,3.07,14.38-7.27,20.92"/><path class="cls-18" d="M216.94,103.18c.96,1.24,.73,3.02-.51,3.98-1.24,.96-3.02,.73-3.98-.51-.96-1.24-.73-3.02,.51-3.98s3.02-.73,3.98,.51Z"/><path class="cls-16" d="M189.63,88.69c.36,.81,.27,1.64-.2,1.84-.47,.2-1.13-.29-1.49-1.11-.36-.81-.27-1.64,.2-1.84s1.13,.29,1.49,1.11Z"/><line class="cls-6" x1="198.67" y1="79.42" x2="201.9" y2="78.48"/><line class="cls-6" x1="184.55" y1="83.52" x2="187.78" y2="82.58"/><path class="cls-2" d="M217.46,54.13c-10-14.58-39.28-27.08-50.26-7.71"/><rect class="cls-10" x="49.09" y="232.52" width="57.76" height="2.67"/><rect class="cls-10" x="48.25" y="229.85" width="57.76" height="2.67"/><rect class="cls-10" x="49.92" y="227.17" width="57.76" height="2.67"/><rect class="cls-10" x="47.42" y="224.5" width="57.76" height="2.67"/><rect class="cls-10" x="52.42" y="221.83" width="57.76" height="2.67"/><rect class="cls-10" x="48.25" y="219.15" width="57.76" height="2.67"/><rect class="cls-10" x="49.92" y="216.48" width="57.76" height="2.67"/><rect class="cls-10" x="44.92" y="213.81" width="57.76" height="2.67"/><rect class="cls-10" x="49.92" y="211.13" width="57.76" height="2.67"/><rect class="cls-10" x="47.42" y="208.46" width="57.76" height="2.67"/><rect class="cls-10" x="49.92" y="205.79" width="57.76" height="2.67"/><rect class="cls-10" x="48.25" y="203.12" width="57.76" height="2.67"/><rect class="cls-10" x="52.42" y="200.44" width="57.76" height="2.67"/><rect class="cls-10" x="50.75" y="197.77" width="57.76" height="2.67"/><rect class="cls-10" x="46.59" y="195.1" width="57.76" height="2.67"/><rect class="cls-10" x="49.09" y="192.42" width="57.76" height="2.67"/><rect class="cls-10" x="307.77" y="232.52" width="57.76" height="2.67"/><rect class="cls-10" x="306.94" y="229.85" width="57.76" height="2.67"/><rect class="cls-10" x="308.6" y="227.17" width="57.76" height="2.67"/><rect class="cls-10" x="306.1" y="224.5" width="57.76" height="2.67"/><rect class="cls-10" x="311.1" y="221.83" width="57.76" height="2.67"/><rect class="cls-10" x="306.94" y="219.15" width="57.76" height="2.67"/><rect class="cls-10" x="308.6" y="216.48" width="57.76" height="2.67"/><rect class="cls-10" x="303.6" y="213.81" width="57.76" height="2.67"/><rect class="cls-10" x="308.6" y="211.13" width="57.76" height="2.67"/><rect class="cls-10" x="306.1" y="208.46" width="57.76" height="2.67"/><rect class="cls-10" x="308.6" y="205.79" width="57.76" height="2.67"/><rect class="cls-10" x="306.94" y="203.12" width="57.76" height="2.67"/><rect class="cls-10" x="311.1" y="200.44" width="57.76" height="2.67"/><rect class="cls-10" x="309.44" y="197.77" width="57.76" height="2.67"/><rect class="cls-10" x="305.27" y="195.1" width="57.76" height="2.67"/><rect class="cls-10" x="307.77" y="192.42" width="57.76" height="2.67"/><path class="cls-9" d="M247.55,235.37H108.16v-2.5H247.55c.69,0,1.25,.56,1.25,1.25h0c0,.69-.56,1.25-1.25,1.25Z"/><path class="cls-9" d="M204.02,235.37H103.53c-2.12,0-4.05-1.19-5.01-3.07l-29.18-57.14c-1.84-3.61,.78-7.9,4.83-7.9h91.74c2.04,0,3.91,1.14,4.83,2.96l33.27,65.15Z"/><path class="cls-11" d="M201.24,235.37H100.76c-2.12,0-4.05-1.19-5.01-3.07l-29.18-57.14c-1.84-3.61,.78-7.9,4.83-7.9h91.74c2.04,0,3.91,1.14,4.83,2.96l33.27,65.15Z"/><ellipse class="cls-9" cx="131.93" cy="202.99" rx="4.41" ry="7.64" transform="translate(-83.82 93.16) rotate(-30)"/><path class="cls-18" d="M223.29,236.17h13.47c1.32,0,2.44-.98,2.62-2.29l4.74-34.55c.18-1.28-.82-2.42-2.11-2.42h-23.98c-1.29,0-2.28,1.14-2.11,2.42l4.74,34.55c.18,1.31,1.3,2.29,2.62,2.29Z"/><path class="cls-4" d="M241.32,211.73c3.21-4.68,6.93-6.61,10.07-5.32,3.14,1.28,2.12,9.94-1.8,13.34-3.91,3.4-10.26,6.35-10.26,6.35"/><rect class="cls-14" x="14.6" y="235.19" width="396.57" height="18.82"/></g></g></svg>